<svg width="22" height="22" viewBox="0 0 22 22" fill="none" xmlns="http://www.w3.org/2000/svg">
<path d="M21.211 5.53997C21.1993 5.08949 21.1644 4.63992 21.1066 4.19301C21.0286 3.80158 20.8987 3.42233 20.7202 3.06532C20.5336 2.67805 20.283 2.32504 19.9789 2.02117C19.672 1.72066 19.3196 1.47047 18.9347 1.27982C18.5773 1.10486 18.198 0.978445 17.807 0.90392C17.3644 0.837615 16.918 0.799254 16.4705 0.789062H5.07879C4.62831 0.800795 4.17873 0.835646 3.73183 0.893478C3.3404 0.971444 2.96115 1.10137 2.60414 1.27982C2.21687 1.46644 1.86386 1.71708 1.55998 2.02117C1.25948 2.32805 1.00929 2.68044 0.818634 3.06532C0.64368 3.4228 0.517263 3.80205 0.442738 4.19301C0.376433 4.63566 0.338072 5.08205 0.327881 5.52953C0.327881 5.72792 0.327881 6.00984 0.327881 6.09337V16.3679C0.327881 16.4827 0.327881 16.7333 0.327881 16.9213C0.339613 17.3717 0.374464 17.8213 0.432296 18.2682C0.510262 18.6597 0.640191 19.0389 0.818634 19.3959C1.00526 19.7832 1.2559 20.1362 1.55998 20.4401C1.86687 20.7406 2.21926 20.9908 2.60414 21.1814C2.96162 21.3564 3.34087 21.4828 3.73183 21.5573C4.17448 21.6236 4.62087 21.662 5.06835 21.6722H16.4601C16.9106 21.6604 17.3601 21.6256 17.807 21.5678C18.1985 21.4898 18.5777 21.3599 18.9347 21.1814C19.322 20.9948 19.675 20.7442 19.9789 20.4401C20.2794 20.1332 20.5296 19.7808 20.7202 19.3959C20.8952 19.0384 21.0216 18.6592 21.0961 18.2682C21.1624 17.8256 21.2008 17.3792 21.211 16.9317C21.211 16.7333 21.211 16.4827 21.211 16.3679V6.09337C21.211 6.00984 21.211 5.72792 21.211 5.53997ZM11.0096 18.5397C9.75563 18.5335 8.5236 18.2103 7.42814 17.6L3.46035 18.6441L4.5045 14.7599C3.83114 13.6285 3.47078 12.3384 3.46035 11.0218C3.46451 9.54214 3.90641 8.09681 4.73042 6.86783C5.55442 5.63885 6.72367 4.68119 8.0909 4.11545C9.45812 3.54971 10.9622 3.4012 12.4137 3.68862C13.8651 3.97604 15.1991 4.68654 16.2475 5.73064C17.296 6.77473 18.012 8.10573 18.3055 9.55599C18.5989 11.0063 18.4567 12.5109 17.8966 13.8805C17.3366 15.2501 16.3838 16.4233 15.1582 17.2524C13.9327 18.0815 12.4892 18.5294 11.0096 18.5397ZM11.0096 4.82995C9.90259 4.84261 8.81871 5.1484 7.86831 5.71616C6.91791 6.28392 6.13493 7.09339 5.59909 8.06215C5.06325 9.03091 4.79368 10.1244 4.81784 11.2312C4.842 12.338 5.15901 13.4186 5.73661 14.3631L5.88279 14.6032L5.2563 16.8899L7.63697 16.2426L7.86669 16.3783C8.81642 16.9377 9.89694 17.2367 10.9992 17.245C12.6607 17.245 14.2542 16.5849 15.4291 15.41C16.604 14.2351 17.2641 12.6416 17.2641 10.98C17.2641 9.31846 16.604 7.72495 15.4291 6.55005C14.2542 5.37514 12.6607 4.71509 10.9992 4.71509L11.0096 4.82995ZM14.6641 13.7262C14.5274 13.9543 14.3443 14.1511 14.1266 14.304C13.909 14.4569 13.6617 14.5624 13.4007 14.6137C13.0108 14.685 12.6093 14.6599 12.2313 14.5406C11.8756 14.4294 11.5269 14.2969 11.1871 14.1438C9.89625 13.4961 8.7954 12.5247 7.99198 11.3246C7.55541 10.7686 7.29051 10.0972 7.22975 9.39291C7.22353 9.10032 7.27888 8.8097 7.3922 8.53988C7.50553 8.27006 7.6743 8.02707 7.88757 7.82667C7.95039 7.75545 8.02746 7.6982 8.11379 7.65863C8.20012 7.61906 8.2938 7.59805 8.38876 7.59696H8.68113C8.79598 7.59696 8.95261 7.59696 9.09879 7.92065C9.24497 8.24434 9.63131 9.2154 9.68352 9.30937C9.70917 9.35947 9.72255 9.41494 9.72255 9.47122C9.72255 9.5275 9.70917 9.58297 9.68352 9.63306C9.63736 9.74653 9.57396 9.85219 9.49557 9.94631C9.4016 10.0612 9.29718 10.1969 9.21365 10.2804C9.13011 10.364 9.0257 10.4684 9.13011 10.6563C9.41422 11.1358 9.76588 11.5719 10.1743 11.9511C10.619 12.3441 11.1275 12.6583 11.6779 12.8804C11.8658 12.9744 11.9807 12.9639 12.0851 12.8804C12.1895 12.7969 12.5549 12.3374 12.6802 12.1495C12.8055 11.9615 12.9308 11.9929 13.0979 12.0555C13.265 12.1182 14.1943 12.5671 14.3822 12.6611C14.5702 12.7551 14.685 12.7969 14.7372 12.8804C14.7825 13.1537 14.7574 13.434 14.6641 13.6948V13.7262Z" fill="#2F2F2F"/>
</svg>
