<svg width="26" height="26" viewBox="0 0 26 26" fill="none" xmlns="http://www.w3.org/2000/svg">
<path d="M13.2305 0.803223C6.36718 0.803223 0.803223 6.36718 0.803223 13.2305C0.803223 19.0585 4.81575 23.9489 10.2286 25.292V17.0283H7.66608V13.2305H10.2286V11.5941C10.2286 7.36435 12.1429 5.40382 16.2956 5.40382C17.083 5.40382 18.4416 5.55841 18.9973 5.71251V9.15488C18.704 9.12406 18.1945 9.10865 17.5617 9.10865C15.5241 9.10865 14.7367 9.88063 14.7367 11.8874V13.2305H18.796L18.0986 17.0283H14.7367V25.5669C20.8902 24.8237 25.6584 19.5844 25.6584 13.2305C25.6579 6.36718 20.0939 0.803223 13.2305 0.803223Z" fill="#2F2F2F"/>
</svg>
