<svg width="24" height="17" viewBox="0 0 24 17" fill="none" xmlns="http://www.w3.org/2000/svg">
<path d="M23.3033 3.72228C23.3033 3.72228 23.0831 2.16808 22.4051 1.48564C21.5465 0.587455 20.5867 0.583052 20.1464 0.530217C16.994 0.301269 12.2609 0.30127 12.2609 0.30127H12.2521C12.2521 0.30127 7.51905 0.301269 4.36662 0.530217C3.92633 0.583052 2.96651 0.587455 2.10796 1.48564C1.42992 2.16808 1.21418 3.72228 1.21418 3.72228C1.21418 3.72228 0.985229 5.54946 0.985229 7.37224V9.08055C0.985229 10.9033 1.20977 12.7305 1.20977 12.7305C1.20977 12.7305 1.42992 14.2847 2.10355 14.9672C2.96211 15.8653 4.08924 15.8345 4.59116 15.9314C6.39633 16.1031 12.2565 16.1559 12.2565 16.1559C12.2565 16.1559 16.994 16.1471 20.1464 15.9226C20.5867 15.8697 21.5465 15.8653 22.4051 14.9672C23.0831 14.2847 23.3033 12.7305 23.3033 12.7305C23.3033 12.7305 23.5278 10.9077 23.5278 9.08055V7.37224C23.5278 5.54946 23.3033 3.72228 23.3033 3.72228ZM9.92741 11.1543V4.81859L16.0165 7.99745L9.92741 11.1543Z" fill="#2F2F2F"/>
</svg>
