<svg width="25" height="25" viewBox="0 0 25 25" fill="none" xmlns="http://www.w3.org/2000/svg">
<g clip-path="url(#clip0_4077_55)">
<path d="M12.7435 2.51515C15.9095 2.51515 16.2844 2.52903 17.5295 2.58458C18.6866 2.63549 19.3115 2.8299 19.7281 2.9919C20.2789 3.20481 20.6769 3.46402 21.0889 3.87597C21.5055 4.29254 21.76 4.68598 21.973 5.23678C22.135 5.65336 22.3294 6.28286 22.3803 7.43539C22.4358 8.68512 22.4497 9.06004 22.4497 12.2214C22.4497 15.3874 22.4358 15.7623 22.3803 17.0074C22.3294 18.1646 22.135 18.7894 21.973 19.206C21.76 19.7568 21.5008 20.1549 21.0889 20.5668C20.6723 20.9834 20.2789 21.238 19.7281 21.4509C19.3115 21.6129 18.682 21.8073 17.5295 21.8582C16.2797 21.9138 15.9048 21.9276 12.7435 21.9276C9.57748 21.9276 9.20256 21.9138 7.95746 21.8582C6.8003 21.8073 6.17544 21.6129 5.75886 21.4509C5.20805 21.238 4.80999 20.9788 4.39804 20.5668C3.98146 20.1502 3.72689 19.7568 3.51397 19.206C3.35197 18.7894 3.15757 18.1599 3.10665 17.0074C3.05111 15.7577 3.03722 15.3828 3.03722 12.2214C3.03722 9.05541 3.05111 8.68049 3.10665 7.43539C3.15757 6.27823 3.35197 5.65336 3.51397 5.23678C3.72689 4.68598 3.98609 4.28791 4.39804 3.87597C4.81462 3.45939 5.20805 3.20481 5.75886 2.9919C6.17544 2.8299 6.80493 2.63549 7.95746 2.58458C9.20256 2.52903 9.57748 2.51515 12.7435 2.51515ZM12.7435 0.381348C9.52657 0.381348 9.12388 0.395234 7.86026 0.450777C6.60127 0.506321 5.73572 0.709981 4.98588 1.00158C4.20364 1.30707 3.54174 1.70977 2.88448 2.37166C2.22258 3.02893 1.81989 3.69082 1.5144 4.46843C1.2228 5.2229 1.01914 6.08382 0.963595 7.34281C0.908051 8.61106 0.894165 9.01375 0.894165 12.2307C0.894165 15.4476 0.908051 15.8502 0.963595 17.1139C1.01914 18.3728 1.2228 19.2384 1.5144 19.9882C1.81989 20.7705 2.22258 21.4324 2.88448 22.0896C3.54174 22.7469 4.20364 23.1542 4.98125 23.4551C5.73572 23.7467 6.59664 23.9504 7.85563 24.0059C9.11925 24.0614 9.52194 24.0753 12.7388 24.0753C15.9557 24.0753 16.3584 24.0614 17.622 24.0059C18.881 23.9504 19.7466 23.7467 20.4964 23.4551C21.274 23.1542 21.9359 22.7469 22.5932 22.0896C23.2505 21.4324 23.6578 20.7705 23.9586 19.9929C24.2503 19.2384 24.4539 18.3775 24.5095 17.1185C24.565 15.8549 24.5789 15.4522 24.5789 12.2353C24.5789 9.01838 24.565 8.61569 24.5095 7.35207C24.4539 6.09308 24.2503 5.22753 23.9586 4.47769C23.667 3.69082 23.2644 3.02893 22.6025 2.37166C21.9452 1.71439 21.2833 1.30707 20.5057 1.00621C19.7512 0.714609 18.8903 0.510949 17.6313 0.455406C16.3631 0.395234 15.9604 0.381348 12.7435 0.381348Z" fill="#2F2F2F"/>
<path d="M12.7434 6.14404C9.383 6.14404 6.65674 8.87031 6.65674 12.2307C6.65674 15.5911 9.383 18.3174 12.7434 18.3174C16.1038 18.3174 18.83 15.5911 18.83 12.2307C18.83 8.87031 16.1038 6.14404 12.7434 6.14404ZM12.7434 16.1789C10.5633 16.1789 8.79517 14.4108 8.79517 12.2307C8.79517 10.0506 10.5633 8.28247 12.7434 8.28247C14.9235 8.28247 16.6916 10.0506 16.6916 12.2307C16.6916 14.4108 14.9235 16.1789 12.7434 16.1789Z" fill="#2F2F2F"/>
<path d="M20.4919 5.90341C20.4919 6.69028 19.8531 7.32441 19.0709 7.32441C18.284 7.32441 17.6499 6.68565 17.6499 5.90341C17.6499 5.11655 18.2887 4.48242 19.0709 4.48242C19.8531 4.48242 20.4919 5.12117 20.4919 5.90341Z" fill="#2F2F2F"/>
</g>
<defs>
<clipPath id="clip0_4077_55">
<rect width="23.6986" height="23.6986" fill="white" transform="translate(0.894165 0.381348)"/>
</clipPath>
</defs>
</svg>
