<svg width="20" height="18" viewBox="0 0 20 18" fill="none" xmlns="http://www.w3.org/2000/svg">
<path d="M17.6667 1.2222C17.4444 0.555528 16.7778 0.111084 16.1111 0.111084H3.88889C3.11111 0.111084 2.55556 0.555528 2.33333 1.2222L0 7.88886V16.7778C0 17.3333 0.555556 17.8889 1.11111 17.8889H2.22222C2.88889 17.8889 3.33333 17.3333 3.33333 16.7778V15.6666H16.6667V16.7778C16.6667 17.3333 17.2222 17.8889 17.7778 17.8889H18.8889C19.4444 17.8889 20 17.3333 20 16.7778V7.88886L17.6667 1.2222ZM4.22222 2.33331H15.6667L16.8889 5.66664H3.11111L4.22222 2.33331ZM17.7778 13.4444H2.22222V7.88886H17.7778V13.4444ZM5 8.99997C5.88889 8.99997 6.66667 9.77775 6.66667 10.6666C6.66667 11.5555 5.88889 12.3333 5 12.3333C4.11111 12.3333 3.33333 11.5555 3.33333 10.6666C3.33333 9.77775 4.11111 8.99997 5 8.99997ZM15 8.99997C15.8889 8.99997 16.6667 9.77775 16.6667 10.6666C16.6667 11.5555 15.8889 12.3333 15 12.3333C14.1111 12.3333 13.3333 11.5555 13.3333 10.6666C13.3333 9.77775 14.1111 8.99997 15 8.99997Z" fill="#777777"/>
</svg>
