<svg width="28" height="22" viewBox="0 0 28 22" fill="none" xmlns="http://www.w3.org/2000/svg">
<path d="M0.9425 21.8253L5.1665 6.46531L6.5745 12.2893C4.73983 12.2893 3.22517 11.756 2.0305 10.6893C0.8785 9.57997 0.3025 8.08664 0.3025 6.2093C0.3025 4.37464 0.899833 2.90264 2.0945 1.7933C3.28917 0.641304 4.76117 0.0653038 6.5105 0.0653038C8.3025 0.0653038 9.7745 0.641304 10.9265 1.7933C12.0785 2.90264 12.6545 4.37464 12.6545 6.2093C12.6545 6.76397 12.6118 7.31864 12.5265 7.87331C12.4838 8.3853 12.3345 9.00397 12.0785 9.72931C11.8652 10.4546 11.5025 11.4146 10.9905 12.6093L7.2785 21.8253H0.9425ZM16.0465 21.8253L20.2705 6.46531L21.6785 12.2893C19.8438 12.2893 18.3292 11.756 17.1345 10.6893C15.9825 9.57997 15.4065 8.08664 15.4065 6.2093C15.4065 4.37464 16.0038 2.90264 17.1985 1.7933C18.3932 0.641304 19.8652 0.0653038 21.6145 0.0653038C23.4065 0.0653038 24.8785 0.641304 26.0305 1.7933C27.1825 2.90264 27.7585 4.37464 27.7585 6.2093C27.7585 6.76397 27.7158 7.31864 27.6305 7.87331C27.5878 8.3853 27.4385 9.00397 27.1825 9.72931C26.9692 10.4546 26.6065 11.4146 26.0945 12.6093L22.3825 21.8253H16.0465Z" fill="#FFF5D8"/>
</svg>
