<svg width="28" height="23" viewBox="0 0 28 23" fill="none" xmlns="http://www.w3.org/2000/svg">
<path d="M12.0145 0.577305L7.7905 15.9373L6.3825 10.1773C8.21717 10.1773 9.7105 10.7106 10.8625 11.7773C12.0145 12.844 12.5905 14.316 12.5905 16.1933C12.5905 18.028 11.9932 19.5213 10.7985 20.6733C9.6465 21.7826 8.19583 22.3373 6.4465 22.3373C4.6545 22.3373 3.16117 21.7826 1.9665 20.6733C0.8145 19.5213 0.2385 18.028 0.2385 16.1933C0.2385 15.6386 0.281167 15.1053 0.3665 14.5933C0.451833 14.0386 0.6225 13.3986 0.8785 12.6733C1.1345 11.948 1.49717 10.988 1.9665 9.7933L5.6785 0.577305H12.0145ZM27.1185 0.577305L22.8945 15.9373L21.4865 10.1773C23.3212 10.1773 24.8145 10.7106 25.9665 11.7773C27.1185 12.844 27.6945 14.316 27.6945 16.1933C27.6945 18.028 27.0972 19.5213 25.9025 20.6733C24.7505 21.7826 23.2998 22.3373 21.5505 22.3373C19.7585 22.3373 18.2652 21.7826 17.0705 20.6733C15.9185 19.5213 15.3425 18.028 15.3425 16.1933C15.3425 15.6386 15.3852 15.1053 15.4705 14.5933C15.5558 14.0386 15.7265 13.3986 15.9825 12.6733C16.2385 11.948 16.6012 10.988 17.0705 9.7933L20.7825 0.577305H27.1185Z" fill="#FFF5D8"/>
</svg>
