<svg width="202" height="233" viewBox="0 0 202 233" fill="none" xmlns="http://www.w3.org/2000/svg">
<circle cx="48.0948" cy="47.6601" r="47.5948" fill="white"/>
<path d="M94.4148 77.8081C93.8935 73.9834 95.6333 70.2024 98.8775 68.1104C104.781 64.3036 112.664 67.6541 114.02 74.5466L122.852 119.441C123.94 124.972 120.78 130.458 115.449 132.292C108.721 134.607 101.555 130.194 100.594 123.144L94.4148 77.8081Z" fill="#5ABCFF"/>
<path d="M131.532 165.198L127.66 156.159L125.934 166.661L129.651 174.572C129.919 175.142 130.489 175.509 131.118 175.516C132.12 175.528 132.899 174.648 132.766 173.655L131.724 165.893C131.692 165.654 131.627 165.42 131.532 165.198Z" fill="#FFBE9C"/>
<path d="M130.989 157.805L108.77 158.68L105.538 129.609C104.724 122.285 112.227 116.882 118.916 119.976L130.989 157.805Z" fill="#5ABCFF"/>
<path d="M117.683 172.204L116.912 187.702" stroke="#080202" stroke-width="1.73487" stroke-linecap="round"/>
<path d="M122.659 172.136L121.399 187.919" stroke="#080202" stroke-width="1.73487" stroke-linecap="round"/>
<path d="M123.458 161.737C121.165 164.871 124.242 168.055 126.284 168.784" stroke="#080202" stroke-width="1.73487" stroke-linecap="round"/>
<path d="M112.342 134.762L114.073 106.124L64.5232 95.7343L62.6584 106.82L66.2777 134.762H112.342Z" fill="#5ABCFF"/>
<path d="M89.2549 171.987C78.0358 172.379 68.4361 164 67.3071 152.831L65.4136 134.1L129.539 138.122C137.467 138.62 143.875 144.773 144.692 152.674C145.662 162.039 138.498 170.266 129.089 170.595L89.2549 171.987Z" fill="#F8E4C6"/>
<path d="M115.021 153.49C115.731 144.775 123.513 138.377 132.201 139.365C141.791 140.721 148.435 149.637 146.993 159.215L138.569 215.169L109.725 218.512L115.021 153.49Z" fill="#F8E4C6"/>
<path d="M138.779 153.49C139.489 144.775 147.27 138.377 155.958 139.365C165.548 140.721 172.193 149.637 170.751 159.215L162.327 215.169L133.483 218.512L138.779 153.49Z" fill="#F8E4C6"/>
<path d="M137.756 212.955H109.859V232.935H151.875C151.875 228.193 149.843 223.675 146.294 220.529L137.756 212.955Z" fill="#2B0913"/>
<path d="M161.513 212.955H133.616V232.935H175.632C175.632 228.193 173.601 223.675 170.051 220.529L161.513 212.955Z" fill="#2B0913"/>
<path d="M111.272 107.456H65.4107C63.9055 107.456 62.699 106.209 62.7483 104.705L63.9188 68.8859C63.9604 67.6139 64.8957 66.549 66.1518 66.3439L78.4546 64.3342C78.5966 64.311 78.7402 64.2993 78.8841 64.2993H99.6892C105.589 64.2993 111.005 67.5592 113.767 72.7724C113.878 72.9812 113.936 73.2141 113.936 73.4504V104.792C113.936 106.263 112.743 107.456 111.272 107.456Z" fill="#5ABCFF"/>
<path d="M65.6369 113.316L53.6489 111.984V169.26C53.6489 175.145 58.4199 179.916 64.3049 179.916H69.8992L65.6369 113.316Z" fill="#9C050D"/>
<path d="M104.083 59.1044H100.62V64.6988L90.0974 71.7583L79.8411 64.6988L79.7079 36.5937C79.7079 29.2374 85.6715 23.2738 93.0278 23.2738H98.7554C106.112 23.2738 112.075 29.2374 112.075 36.5937V51.1125C112.075 55.5264 108.497 59.1044 104.083 59.1044Z" fill="#FFBE9C"/>
<path d="M79.7934 54.6433C85.3374 55.5834 95.7914 52.3994 99.0495 39.6056C101.367 40.7988 105.765 41.536 104.816 34.9397C106.168 37.8373 109.638 38.9948 112.075 39.3363V36.5937C112.075 29.2374 106.112 23.2738 98.7554 23.2738H93.0278C85.6715 23.2738 79.7079 29.2374 79.7079 36.5937L79.7934 54.6433Z" fill="#2B0913"/>
<path d="M79.7079 64.166L92.3618 70.9592L100.753 64.166V71.492C94.391 75.8662 85.866 75.6172 79.7079 70.9592V64.166Z" fill="#59BBFF"/>
<path d="M85.6572 48.6599C84.3694 46.7519 84.582 44.2054 86.1679 42.5372C88.0343 40.5747 91.1381 40.4966 93.1006 42.363L97.1022 46.1682L89.83 54.8422L85.6572 48.6599Z" fill="#FFBE9C"/>
<path d="M110.584 206.877L110.651 206.054L139.742 206.047L139.636 206.877L110.584 206.877Z" fill="#E9A360"/>
<path d="M134.341 206.877L134.408 206.054L163.499 206.047L163.393 206.877L134.341 206.877Z" fill="#E9A360"/>
<path d="M56.6011 77.0908C56.871 71.8063 60.7985 67.4299 66.0231 66.5921C73.0043 65.4729 79.2663 71.0164 79.0018 78.0818L77.4018 120.799C77.194 126.342 73.0589 130.948 67.5695 131.749C60.3946 132.796 54.0527 127.023 54.4222 119.782L56.6011 77.0908Z" fill="#5ABCFF"/>
<path d="M89.5647 45.9177L92.0955 48.8481" stroke="#080202" stroke-width="1.73487" stroke-linecap="round"/>
<path d="M97.5088 56.905C97.3239 56.7843 97.0762 56.8365 96.9557 57.0214C96.8351 57.206 96.8873 57.4538 97.0722 57.5742L97.5088 56.905ZM100.136 59.5722L100.47 59.7906L100.907 59.1211L100.572 58.903L100.136 59.5722ZM97.0722 57.5742L100.136 59.5722L100.572 58.903L97.5088 56.905L97.0722 57.5742Z" fill="#080202"/>
<path d="M77.3096 111.985L75.3116 86.8099" stroke="#080202" stroke-width="1.73487" stroke-linecap="round"/>
<path d="M109.593 218.485L138.437 215.142L146.861 159.188C148.303 149.61 141.658 140.694 132.068 139.338" stroke="#080202" stroke-width="2.31316"/>
<path d="M109.471 110.519L107.473 85.3447" stroke="#080202" stroke-width="1.73487" stroke-linecap="round"/>
<path d="M132.305 138.006L83.3597 134.68" stroke="#080202" stroke-width="2.89145" stroke-linecap="round"/>
<path d="M150.903 227.34H109.593V232.935H151.875C151.875 231.009 151.539 229.117 150.903 227.34Z" fill="white"/>
<path d="M174.66 227.34H133.35V232.935H175.632C175.632 231.009 175.297 229.117 174.66 227.34Z" fill="white"/>
<path d="M108.612 44.5859C109.127 44.5859 109.544 44.1684 109.544 43.6535C109.544 43.1385 109.127 42.7211 108.612 42.7211C108.097 42.7211 107.68 43.1385 107.68 43.6535C107.68 44.1684 108.097 44.5859 108.612 44.5859Z" fill="#2B0913"/>
<path d="M105.815 50.0468C106.081 51.1123 107.147 51.9115 108.079 51.6451" stroke="#080202" stroke-width="1.73487" stroke-linecap="round"/>
<path d="M114.468 47.5505L111.409 44.9854V49.9137L114.221 48.9158C114.804 48.7091 114.941 47.9477 114.468 47.5505Z" fill="#FFBE9C"/>
<path d="M67.7679 131.432H112.559L113.322 136.227H67.7679V131.432Z" fill="#080202"/>
<path d="M79.4416 131.432H77.5768V137.026H79.4416V131.432Z" fill="#F8E4C6"/>
<path d="M69.5846 131.432H67.7198V137.026H69.5846V131.432Z" fill="#F8E4C6"/>
<path d="M93.028 131.432H91.1632V137.026H93.028V131.432Z" fill="#F8E4C6"/>
<path d="M108.213 131.432H106.348V137.026H108.213V131.432Z" fill="#F0CDAC"/>
<path d="M66.9688 171.392H75.4936L70.1656 232.93H61.6409L66.9688 171.392Z" fill="#FFF5D8"/>
<path d="M110.125 171.392H101.601L106.929 232.93H115.453L110.125 171.392Z" fill="#FFF5D8"/>
<path d="M112.255 111.452H100.713C100.16 111.452 99.6992 111.875 99.6518 112.426L98.5034 125.746C98.4498 126.368 98.9405 126.903 99.5652 126.903H116.266C119.188 126.903 121.937 125.512 123.668 123.158C123.971 122.745 124.57 122.7 124.932 123.062L128.461 126.591C128.661 126.791 128.932 126.903 129.215 126.903H143.718C144.591 126.903 145.094 125.91 144.577 125.206L134.593 111.611C133.756 110.472 132.565 109.642 131.206 109.251L124.211 107.241C122.61 106.781 120.892 106.964 119.424 107.751L112.759 111.325C112.604 111.408 112.431 111.452 112.255 111.452Z" fill="#FFBE9C"/>
<path d="M140.244 215.163L135.549 217.702C135.354 217.809 135.112 217.737 135.007 217.542C134.902 217.348 134.974 217.105 135.168 216.999L139.608 214.599L140.244 215.163Z" fill="white"/>
<path d="M143.835 218.347L139.43 220.728C139.236 220.835 139.164 221.077 139.269 221.272C139.374 221.466 139.617 221.538 139.811 221.432L144.471 218.912L143.835 218.347Z" fill="white"/>
<path d="M110.343 106.078L110.482 128.722L77.5829 128.925C71.33 128.963 66.2298 123.926 66.1911 117.673C66.1528 111.42 71.1904 106.32 77.4433 106.281L110.343 106.078Z" fill="#5ABCFF"/>
<path d="M80.553 106.332L110.077 106.371" stroke="#080202" stroke-width="1.73487" stroke-linecap="round"/>
<path d="M201.5 129.833H187.115V232.929H201.5V129.833Z" fill="#FFF5D8"/>
<path d="M127.308 116.78L132.636 126.37" stroke="#080202" stroke-width="1.73487" stroke-linecap="round"/>
<path d="M131.704 116.78L137.032 126.37" stroke="#080202" stroke-width="1.73487" stroke-linecap="round"/>
<path d="M135.167 117.179L140.495 126.37" stroke="#080202" stroke-width="1.73487" stroke-linecap="round"/>
<path d="M115.453 168.727H65.3704V179.916H115.453V168.727Z" fill="#9C050D"/>
<path d="M98.67 129.833H87.7477V232.929H98.67V129.833Z" fill="#FFF5D8"/>
<path d="M201.5 129.833H87.7477V142.354H201.5V129.833Z" fill="#9C050D"/>
<path d="M111.99 125.038L139.962 121.308L140.362 126.503L117.269 129.647C114.477 130.027 111.99 127.857 111.99 125.038Z" fill="#FFF5D8"/>
<path d="M140.228 129.833C142.582 129.833 144.491 127.925 144.491 125.571C144.491 123.217 142.582 121.308 140.228 121.308C137.874 121.308 135.966 123.217 135.966 125.571C135.966 127.925 137.874 129.833 140.228 129.833Z" fill="#FFF5D8"/>
<path d="M190.045 59.2375H134.101C129.687 59.2375 126.109 62.8157 126.109 67.2295V102.927C126.109 107.341 129.687 110.919 134.101 110.919H190.045C194.459 110.919 198.037 107.341 198.037 102.927V67.2295C198.037 62.8157 194.459 59.2375 190.045 59.2375Z" fill="#FFF5D8"/>
<path d="M156.625 104.658C156.546 103.874 157.162 103.193 157.95 103.193H174.135C174.724 103.193 175.242 103.579 175.411 104.143L182.604 128.119C182.86 128.973 182.22 129.833 181.328 129.833H160.348C159.664 129.833 159.091 129.315 159.023 128.634L156.625 104.658Z" fill="#FFF5D8"/>
<path d="M147.267 126.993C147.355 126.332 147.92 125.837 148.588 125.837H162.434C162.548 125.837 162.662 125.852 162.773 125.881L167.834 127.213C169.344 127.611 169.056 129.833 167.495 129.833H159.143H148.41C147.604 129.833 146.983 129.124 147.09 128.325L147.267 126.993Z" fill="#FFF5D8"/>
<path d="M58.2108 51.544C57.7927 51.544 57.3556 51.411 56.9375 51.316C56.0915 51.1268 55.2596 50.8791 54.4479 50.5748C53.5662 50.254 52.5971 50.2707 51.727 50.6215C50.8568 50.9724 50.1472 51.6326 49.7347 52.4753L49.3166 53.3495C47.4708 52.3027 45.7657 51.0255 44.2423 49.5485C42.7653 48.025 41.4881 46.3199 40.4413 44.4742L41.3155 44.0751C42.1581 43.6625 42.8184 42.9529 43.1692 42.0828C43.5201 41.2127 43.5367 40.2436 43.216 39.3619C42.9142 38.5429 42.6666 37.7048 42.4748 36.8533C42.3798 36.4352 42.3038 35.998 42.2468 35.5799C42.016 34.2413 41.3148 33.029 40.2695 32.1614C39.2243 31.2938 37.9036 30.828 36.5453 30.8477H30.8248C30.0214 30.8467 29.2268 31.0154 28.4932 31.343C27.7595 31.6705 27.1034 32.1494 26.5677 32.7482C26.021 33.3633 25.6139 34.0895 25.3744 34.8768C25.1349 35.6642 25.0688 36.494 25.1804 37.3094C26.2135 45.2195 29.8275 52.5677 35.462 58.2147C41.109 63.8493 48.4573 67.4633 56.3674 68.4964C56.6141 68.5152 56.8618 68.5152 57.1086 68.4964C58.51 68.4984 59.8631 67.9842 60.9095 67.052C61.5084 66.5164 61.9873 65.8602 62.3148 65.1266C62.6423 64.3929 62.8111 63.5983 62.81 62.7949V57.0934C62.7998 55.7803 62.3365 54.5109 61.4986 53.4998C60.6606 52.4887 59.4993 51.7979 58.2108 51.544ZM59.1421 62.9469C59.1414 63.2121 59.0853 63.4743 58.9773 63.7165C58.8693 63.9587 58.7118 64.1756 58.5149 64.3533C58.3066 64.5431 58.0587 64.6841 57.7892 64.7663C57.5197 64.8485 57.2352 64.8697 56.9565 64.8284C49.8644 63.9022 43.2735 60.6701 38.1987 55.6301C33.1196 50.5509 29.8594 43.9371 28.9243 36.8153C28.8831 36.5365 28.9043 36.2521 28.9864 35.9826C29.0686 35.713 29.2097 35.4651 29.3995 35.2569C29.5793 35.0576 29.7993 34.8987 30.045 34.7906C30.2906 34.6825 30.5564 34.6276 30.8248 34.6297H36.5263C36.9656 34.619 37.3951 34.7608 37.7416 35.0311C38.0881 35.3014 38.3302 35.6834 38.4268 36.1121C38.4268 36.6252 38.5978 37.1573 38.7118 37.6705C38.9315 38.6661 39.2237 39.6443 39.5861 40.5972L36.9254 41.8515C36.4681 42.0615 36.1127 42.4442 35.9371 42.9158C35.7471 43.3785 35.7471 43.8975 35.9371 44.3602C38.6723 50.2189 43.3818 54.9284 49.2405 57.6636C49.7032 57.8537 50.2222 57.8537 50.6849 57.6636C51.1565 57.4881 51.5392 57.1327 51.7492 56.6753L52.9465 54.0147C53.927 54.3722 54.9301 54.6642 55.9493 54.8889C56.4434 55.0029 56.9755 55.0979 57.4887 55.1739C57.9174 55.2705 58.2994 55.5126 58.5696 55.8591C58.8399 56.2057 58.9818 56.6351 58.971 57.0744L59.1421 62.9469ZM47.9292 30.6387C47.4921 30.6387 47.036 30.6387 46.5989 30.6387C46.0948 30.6815 45.6284 30.9228 45.3023 31.3095C44.9762 31.6962 44.8171 32.1967 44.8599 32.7007C44.9028 33.2047 45.1441 33.6711 45.5308 33.9972C45.9175 34.3233 46.4179 34.4825 46.9219 34.4396H47.9292C50.9534 34.4396 53.8538 35.641 55.9923 37.7795C58.1307 39.9179 59.3321 42.8183 59.3321 45.8426C59.3321 46.1846 59.3321 46.5077 59.3321 46.8498C59.29 47.3512 59.4484 47.8488 59.7726 48.2336C60.0968 48.6183 60.5603 48.8588 61.0616 48.9023H61.2136C61.6894 48.9043 62.1485 48.7277 62.5004 48.4075C62.8523 48.0873 63.0713 47.6467 63.1141 47.1729C63.1141 46.7358 63.1141 46.2797 63.1141 45.8426C63.1141 41.8135 61.5149 37.9492 58.6677 35.0985C55.8205 32.2478 51.9582 30.6437 47.9292 30.6387ZM51.7302 45.8426C51.7302 46.3466 51.9304 46.83 52.2868 47.1864C52.6432 47.5428 53.1266 47.743 53.6307 47.743C54.1347 47.743 54.6181 47.5428 54.9745 47.1864C55.3309 46.83 55.5311 46.3466 55.5311 45.8426C55.5311 43.8264 54.7302 41.8928 53.3046 40.4672C51.8789 39.0415 49.9454 38.2406 47.9292 38.2406C47.4252 38.2406 46.9418 38.4408 46.5854 38.7973C46.2289 39.1537 46.0287 39.6371 46.0287 40.1411C46.0287 40.6451 46.2289 41.1285 46.5854 41.4849C46.9418 41.8414 47.4252 42.0416 47.9292 42.0416C48.9373 42.0416 49.9041 42.442 50.6169 43.1549C51.3297 43.8677 51.7302 44.8345 51.7302 45.8426Z" fill="#59BBFF"/>
</svg>
